<?xml version="1.0" standalone="no"?>
<svg xmlns:xlink="http://www.w3.org/1999/xlink" id="wave" style="transform:rotate(0deg); transition: 0.3s" viewBox="0 0 1440 140" version="1.1" xmlns="http://www.w3.org/2000/svg"><defs><linearGradient id="sw-gradient-0" x1="0" x2="0" y1="1" y2="0"><stop stop-color="rgba(21, 21, 21, 1)" offset="0%"/><stop stop-color="rgba(95, 109, 136, 1)" offset="100%"/></linearGradient></defs><path style="transform:translate(0, 0px); opacity:1" fill="url(#sw-gradient-0)" d="M0,112L26.7,98C53.3,84,107,56,160,51.3C213.3,47,267,65,320,74.7C373.3,84,427,84,480,84C533.3,84,587,84,640,70C693.3,56,747,28,800,14C853.3,0,907,0,960,16.3C1013.3,33,1067,65,1120,72.3C1173.3,79,1227,61,1280,60.7C1333.3,61,1387,79,1440,84C1493.3,89,1547,79,1600,74.7C1653.3,70,1707,70,1760,74.7C1813.3,79,1867,89,1920,93.3C1973.3,98,2027,98,2080,88.7C2133.3,79,2187,61,2240,49C2293.3,37,2347,33,2400,35C2453.3,37,2507,47,2560,49C2613.3,51,2667,47,2720,51.3C2773.3,56,2827,70,2880,70C2933.3,70,2987,56,3040,51.3C3093.3,47,3147,51,3200,65.3C3253.3,79,3307,103,3360,114.3C3413.3,126,3467,126,3520,116.7C3573.3,107,3627,89,3680,70C3733.3,51,3787,33,3813,23.3L3840,14L3840,140L3813.3,140C3786.7,140,3733,140,3680,140C3626.7,140,3573,140,3520,140C3466.7,140,3413,140,3360,140C3306.7,140,3253,140,3200,140C3146.7,140,3093,140,3040,140C2986.7,140,2933,140,2880,140C2826.7,140,2773,140,2720,140C2666.7,140,2613,140,2560,140C2506.7,140,2453,140,2400,140C2346.7,140,2293,140,2240,140C2186.7,140,2133,140,2080,140C2026.7,140,1973,140,1920,140C1866.7,140,1813,140,1760,140C1706.7,140,1653,140,1600,140C1546.7,140,1493,140,1440,140C1386.7,140,1333,140,1280,140C1226.7,140,1173,140,1120,140C1066.7,140,1013,140,960,140C906.7,140,853,140,800,140C746.7,140,693,140,640,140C586.7,140,533,140,480,140C426.7,140,373,140,320,140C266.7,140,213,140,160,140C106.7,140,53,140,27,140L0,140Z"/><defs><linearGradient id="sw-gradient-1" x1="0" x2="0" y1="1" y2="0"><stop stop-color="rgba(21, 21, 21, 1)" offset="0%"/><stop stop-color="rgba(21, 21, 21, 1)" offset="100%"/></linearGradient></defs><path style="transform:translate(0, 50px); opacity:0.9" fill="url(#sw-gradient-1)" d="M0,84L26.7,72.3C53.3,61,107,37,160,37.3C213.3,37,267,61,320,58.3C373.3,56,427,28,480,16.3C533.3,5,587,9,640,30.3C693.3,51,747,89,800,93.3C853.3,98,907,70,960,65.3C1013.3,61,1067,79,1120,93.3C1173.3,107,1227,117,1280,105C1333.3,93,1387,61,1440,42C1493.3,23,1547,19,1600,14C1653.3,9,1707,5,1760,16.3C1813.3,28,1867,56,1920,60.7C1973.3,65,2027,47,2080,42C2133.3,37,2187,47,2240,63C2293.3,79,2347,103,2400,100.3C2453.3,98,2507,70,2560,53.7C2613.3,37,2667,33,2720,32.7C2773.3,33,2827,37,2880,53.7C2933.3,70,2987,98,3040,93.3C3093.3,89,3147,51,3200,30.3C3253.3,9,3307,5,3360,11.7C3413.3,19,3467,37,3520,56C3573.3,75,3627,93,3680,98C3733.3,103,3787,93,3813,88.7L3840,84L3840,140L3813.3,140C3786.7,140,3733,140,3680,140C3626.7,140,3573,140,3520,140C3466.7,140,3413,140,3360,140C3306.7,140,3253,140,3200,140C3146.7,140,3093,140,3040,140C2986.7,140,2933,140,2880,140C2826.7,140,2773,140,2720,140C2666.7,140,2613,140,2560,140C2506.7,140,2453,140,2400,140C2346.7,140,2293,140,2240,140C2186.7,140,2133,140,2080,140C2026.7,140,1973,140,1920,140C1866.7,140,1813,140,1760,140C1706.7,140,1653,140,1600,140C1546.7,140,1493,140,1440,140C1386.7,140,1333,140,1280,140C1226.7,140,1173,140,1120,140C1066.7,140,1013,140,960,140C906.7,140,853,140,800,140C746.7,140,693,140,640,140C586.7,140,533,140,480,140C426.7,140,373,140,320,140C266.7,140,213,140,160,140C106.7,140,53,140,27,140L0,140Z"/></svg>